# xmcd CD database file
#
# Track frame offsets:
#	150
#	15110
#	28230
#	43685
#	56272
#	68415
#	84325
#	104337
#	114477
#	128312
#	140020
#
# Disc length: 2093 seconds
#
# Revision: 0
# Processed by: cddbd v1.5PL3 Copyright (c) Steve Scherf et al.
# Submitted via: CDex 1.51
#
DISCID=7e082b0b
DTITLE=Lorraine Ellison - Stay with me
DYEAR=1900
DGENRE=Blues
TTITLE0=Only your love
TTITLE1=Try
TTITLE2=I´m gonna cry till my tears run dry
TTITLE3=I want to be loved
TTITLE4=The hurt came back again
TTITLE5=Stay with me
TTITLE6=You don`t know nothing about love
TTITLE7=You´re easy on my mind
TTITLE8=No matter how it all turns out
TTITLE9=A good love
TTITLE10=Heart be still
EXTD=
EXTT0=
EXTT1=
EXTT2=
EXTT3=
EXTT4=
EXTT5=
EXTT6=
EXTT7=
EXTT8=
EXTT9=
EXTT10=
PLAYORDER=
